<svg xmlns="http://www.w3.org/2000/svg" viewBox="0 0 1000 158.569"><path d="M233.931 79.093c0 4.811.816 9.202 2.456 13.176 1.635 3.976 3.824 7.346 6.571 10.117 2.744 2.77 5.965 4.916 9.66 6.431 3.695 1.517 7.655 2.274 11.877 2.274s8.18-.757 11.878-2.274c3.694-1.515 6.942-3.66 9.738-6.431 2.796-2.771 4.989-6.14 6.574-10.117 1.583-3.974 2.375-8.365 2.375-13.176 0-4.912-.792-9.307-2.375-13.176-1.585-3.865-3.778-7.187-6.574-9.96a28.775 28.775 0 0 0-9.738-6.35c-3.698-1.466-7.656-2.197-11.878-2.197s-8.182.731-11.876 2.197c-3.696 1.465-6.917 3.582-9.66 6.35-2.748 2.773-4.937 6.095-6.572 9.96-1.64 3.87-2.456 8.264-2.456 13.176m-19.793.157c0-7.424 1.318-14.218 3.957-20.39 2.638-6.17 6.256-11.5 10.847-16 4.594-4.494 9.924-7.998 15.997-10.508 6.068-2.51 12.589-3.765 19.556-3.765s13.485 1.256 19.558 3.765c6.07 2.51 11.4 6.014 15.996 10.509 4.591 4.498 8.206 9.83 10.846 16 2.638 6.17 3.959 12.965 3.959 20.389 0 7.322-1.32 14.092-3.96 20.31-2.64 6.225-6.254 11.585-10.845 16.08-4.595 4.497-9.927 7.999-15.996 10.509-6.073 2.51-12.59 3.763-19.558 3.763s-13.488-1.254-19.556-3.763c-6.073-2.51-11.403-6.012-15.996-10.509-4.592-4.495-8.21-9.855-10.848-16.08-2.639-6.218-3.957-12.988-3.957-20.31m105.137-27.448h18.844V93.21c0 6.59 1.37 11.347 4.118 14.273 2.742 2.928 6.753 4.391 12.034 4.391 3.378 0 6.387-.599 9.025-1.802 2.64-1.201 4.855-2.535 6.654-4a31.308 31.308 0 0 0 5.54-5.647V51.803h19.004v76.855h-16.627l-2.06-10.194c-3.273 3.662-7.022 6.484-11.242 8.469-4.225 1.985-8.976 2.98-14.252 2.98-4.542 0-8.711-.81-12.512-2.43-3.8-1.62-7.072-3.867-9.818-6.745-2.747-2.875-4.885-6.274-6.412-10.193-1.533-3.923-2.296-8.184-2.296-12.784V51.802ZM445.25 69.684h-3.959c-3.697 0-6.863.525-9.5 1.567-2.642 1.047-4.858 2.251-6.652 3.607-2.006 1.57-3.697 3.295-5.067 5.177v48.623h-19V51.803h17.415l1.585 10.353c3.061-3.554 6.755-6.3 11.084-8.237 4.329-1.933 9.027-2.9 14.094-2.9v18.665Zm20.858 5.803c0 1.881 1.028 3.346 3.088 4.391 2.06 1.047 4.646 1.987 7.762 2.825 3.112.837 6.465 1.724 10.055 2.664 3.586.942 6.939 2.274 10.056 4.001 3.11 1.724 5.7 3.998 7.758 6.823 2.058 2.822 3.088 6.537 3.088 11.137 0 6.9-2.59 12.39-7.76 16.468-5.173 4.079-12.35 6.115-21.536 6.115-4.751 0-9.105-.731-13.064-2.194-3.959-1.463-7.364-3.477-10.215-6.04a27.31 27.31 0 0 1-6.65-9.018c-1.583-3.45-2.43-7.11-2.533-10.978h19.001c.42 3.137 1.902 5.567 4.435 7.293 2.534 1.724 5.648 2.587 9.343 2.587 2.954 0 5.355-.443 7.205-1.333 1.845-.888 2.771-2.222 2.771-3.998 0-1.465-1.03-2.562-3.088-3.295-2.059-.73-4.62-1.436-7.68-2.118a213.01 213.01 0 0 1-10.056-2.51c-3.641-.992-6.994-2.402-10.055-4.235-3.063-1.828-5.624-4.257-7.682-7.293-2.058-3.03-3.086-6.954-3.086-11.763 0-3.344.71-6.456 2.138-9.332 1.423-2.875 3.456-5.413 6.095-7.607 2.638-2.196 5.806-3.923 9.504-5.176 3.694-1.257 7.81-1.881 12.35-1.881 4.435 0 8.446.678 12.035 2.038 3.587 1.36 6.675 3.293 9.265 5.803 2.584 2.51 4.615 5.49 6.095 8.939 1.48 3.451 2.27 7.322 2.375 11.608h-19.16c-1.163-6.69-4.91-10.039-11.244-10.039-3.062 0-5.596.525-7.6 1.568-2.007 1.047-3.01 2.564-3.01 4.55m93.505-28.389V79.25h16.152c6.65 0 11.639-1.435 14.964-4.312 3.328-2.876 4.99-6.823 4.99-11.842s-1.662-8.942-4.99-11.764c-3.325-2.824-8.314-4.234-14.964-4.234h-16.152ZM540.61 29.843h35.947c6.017 0 11.427.811 16.23 2.432 4.804 1.62 8.895 3.921 12.274 6.9 3.378 2.98 5.964 6.486 7.76 10.51 1.793 4.026 2.694 8.496 2.694 13.411 0 5.02-.926 9.594-2.774 13.724-1.846 4.132-4.488 7.635-7.916 10.509-3.434 2.876-7.522 5.125-12.275 6.743-4.75 1.623-10.08 2.432-15.993 2.432h-16.944v32.153H540.61V29.843Zm122.047 39.841H658.7c-3.698 0-6.864.525-9.5 1.567-2.643 1.047-4.859 2.251-6.652 3.607-2.006 1.57-3.698 3.295-5.069 5.177v48.623h-19V51.803h17.417l1.583 10.353c3.063-3.554 6.757-6.3 11.086-8.237 4.328-1.933 9.027-2.9 14.094-2.9v18.665Zm4.679-17.883h19v76.857h-19V51.8Zm-.95-12.86c0-2.826 1.03-5.255 3.088-7.293 2.056-2.04 4.51-3.061 7.36-3.061 2.85 0 5.278 1.021 7.284 3.06 2.004 2.039 3.008 4.469 3.008 7.294 0 2.822-1.004 5.253-3.008 7.293-2.006 2.04-4.434 3.057-7.283 3.057-2.85 0-5.305-1.018-7.361-3.057-2.058-2.04-3.088-4.472-3.088-7.293m24.468 12.861h19.794l21.061 49.407 21.06-49.407h19.795l-32.937 76.856H723.79l-32.936-76.856zM826.62 90.544c0-3.345-.581-6.324-1.742-8.94-1.164-2.612-2.72-4.864-4.673-6.746-1.955-1.882-4.274-3.319-6.967-4.313-2.693-.993-5.57-1.488-8.63-1.488-2.958 0-5.756.495-8.393 1.488-2.642.994-4.938 2.431-6.89 4.313-1.956 1.882-3.483 4.134-4.592 6.747-1.108 2.615-1.662 5.594-1.662 8.939 0 3.244.554 6.171 1.662 8.783 1.11 2.615 2.637 4.863 4.591 6.745 1.953 1.882 4.25 3.32 6.891 4.313 2.637.995 5.435 1.49 8.393 1.49 3.06 0 5.937-.496 8.63-1.49 2.693-.993 5.012-2.431 6.967-4.313 1.953-1.882 3.51-4.13 4.673-6.745 1.16-2.612 1.741-5.539 1.741-8.783m.16 29.332c-3.274 3.346-6.996 5.855-11.166 7.529a34.847 34.847 0 0 1-13.065 2.507c-5.28 0-10.24-.967-14.885-2.901-4.648-1.933-8.684-4.651-12.114-8.157-3.432-3.5-6.124-7.658-8.077-12.47-1.954-4.807-2.93-10.088-2.93-15.84 0-5.749.976-11.058 2.93-15.92 1.954-4.861 4.645-9.044 8.077-12.548 3.43-3.502 7.466-6.219 12.114-8.157 4.644-1.932 9.606-2.9 14.885-2.9 4.539 0 8.87.837 12.986 2.51 4.118 1.671 7.812 4.132 11.085 7.371v-9.098h19.003v76.856h-17.42l-1.423-8.782Zm82.112-35.762c-1.162-4.6-3.458-8.208-6.887-10.825-3.433-2.61-7.522-3.92-12.274-3.92-2.957 0-5.726.5-8.314 1.49-2.588.997-4.83 2.407-6.73 4.234-1.9 1.833-3.405 4.028-4.513 6.589-1.109 2.564-1.663 5.465-1.663 8.705 0 3.242.555 6.171 1.663 8.784 1.108 2.615 2.613 4.838 4.513 6.666 1.9 1.829 4.142 3.242 6.73 4.235 2.588.996 5.357 1.49 8.314 1.49 4.855 0 9-1.334 12.432-4 3.427-2.666 5.78-6.404 7.047-11.216h19.16c-.422 5.02-1.74 9.569-3.958 13.646a37.108 37.108 0 0 1-8.552 10.588c-3.482 2.982-7.47 5.281-11.956 6.901-4.489 1.621-9.213 2.43-14.172 2.43-5.491 0-10.689-.967-15.6-2.9-4.909-1.932-9.16-4.652-12.746-8.156-3.59-3.503-6.442-7.658-8.552-12.47-2.113-4.808-3.168-10.088-3.168-15.84 0-5.75 1.055-11.06 3.168-15.922 2.11-4.861 4.961-9.042 8.552-12.548 3.585-3.502 7.837-6.217 12.746-8.155 4.911-1.934 10.108-2.902 15.6-2.902 5.068 0 9.843.839 14.331 2.51 4.486 1.673 8.444 3.947 11.876 6.823 3.43 2.878 6.228 6.327 8.394 10.352 2.162 4.027 3.455 8.391 3.881 13.097l-19.322.313Zm71.314-32.312-18.686 50.978-18.686-50.978h-19.795l28.661 77.955-10.133 27.137h19.795L1000 51.802h-19.795z" style="fill:#061922"/><path d="M123.203 84.602c0 27.34-22.165 49.503-49.504 49.503s-49.504-22.164-49.504-49.503V21.825h82.872c4.202-6.461 6.649-13.893 6.649-21.825H0v85.493c0 40.359 32.717 73.076 73.076 73.076h1.689c40.357 0 73.074-32.717 73.074-73.076V34.124c-9.363 0-17.54 3.34-24.636 8.588v41.89Z" style="fill:#be5250"/><path d="M55.23 92.61V54.991h12.795c30.304 0 54.867-24.565 54.867-54.867l.004-.124h24.943v24.947c-30.304 0-54.988 24.567-54.988 54.87V92.61h-37.62Z" style="fill:#061922"/></svg>